<?xml version="1.0" encoding="UTF-8" standalone="no"?>
<!-- Created with Inkscape (http://www.inkscape.org/) -->

<svg
   xmlns:dc="http://purl.org/dc/elements/1.1/"
   xmlns:cc="http://creativecommons.org/ns#"
   xmlns:rdf="http://www.w3.org/1999/02/22-rdf-syntax-ns#"
   xmlns:svg="http://www.w3.org/2000/svg"
   xmlns="http://www.w3.org/2000/svg"
   xmlns:sodipodi="http://sodipodi.sourceforge.net/DTD/sodipodi-0.dtd"
   xmlns:inkscape="http://www.inkscape.org/namespaces/inkscape"
   id="svg3406"
   version="1.1"
   inkscape:version="0.91 r13725"
   width="512"
   height="512"
   viewBox="0 0 512 512"
   sodipodi:docname="logo.svg">
  <metadata
     id="metadata3412">
    <rdf:RDF>
      <cc:Work
         rdf:about="">
        <dc:format>image/svg+xml</dc:format>
        <dc:type
           rdf:resource="http://purl.org/dc/dcmitype/StillImage" />
        <dc:title></dc:title>
      </cc:Work>
    </rdf:RDF>
  </metadata>
  <defs
     id="defs3410" />
  <sodipodi:namedview
     pagecolor="#ffffff"
     bordercolor="#666666"
     borderopacity="1"
     objecttolerance="10"
     gridtolerance="10"
     guidetolerance="10"
     inkscape:pageopacity="0"
     inkscape:pageshadow="2"
     inkscape:window-width="640"
     inkscape:window-height="480"
     id="namedview3408"
     showgrid="false"
     inkscape:zoom="1.0173867"
     inkscape:cx="117.26366"
     inkscape:cy="255.27474"
     inkscape:current-layer="svg3406"
     fit-margin-top="0"
     fit-margin-left="0"
     fit-margin-right="0"
     fit-margin-bottom="0" />
  <path
     style="fill:#d4ff2a"
     d="m 295.98278,511.91971 c 0,-0.15087 2.85581,-5.07511 6.34625,-10.94276 15.31827,-25.751 24.08344,-55.97339 22.10555,-76.22016 -2.34289,-23.98303 -10.88399,-38.18139 -34.80208,-57.8535 -32.41761,-26.66277 -49.89569,-58.87308 -48.50947,-89.39803 0.41819,-9.20887 1.12691,-9.02732 -9.14025,-2.34139 -12.73404,8.29235 -24.7253,17.80033 -35.14351,27.86562 -36.61976,35.37926 -50.20933,75.50746 -40.9348,120.87506 5.31218,25.98528 20.05237,56.26277 38.90838,79.92087 2.91131,3.65274 5.14387,6.79076 4.96124,6.97339 -0.68925,0.68925 -30.2395,-13.59799 -44.4702,-21.50089 -30.16902,-16.75411 -49.0492,-30.5853 -68.874334,-50.45577 -24.48412,-24.54011 -37.16515,-47.16393 -42.08664,-75.08536 -1.91933,-10.88909 -1.34882,-32.98128 1.14917,-44.5 9.23448,-42.58204 40.78513,-87.55815 88.140704,-125.64642 23.25826,-18.70672 40.33059,-43.98337 54.77719,-81.10103 11.12861,-28.592748 21.38964,-69.79613 25.64511,-102.9784882 0.98958,-7.7163723 1.41991,-9.030397 2.79855,-8.5453685 0.89602,0.3152403 6.13963,2.6758223 11.65246,5.2457375 50.99473,23.7722382 87.04792,66.4016452 106.58427,126.0255692 6.74707,20.59171 12.89241,52.55255 12.89241,67.05122 0,2.72183 0.27719,4.94878 0.61597,4.94878 0.33878,0 9.39039,-8.43046 20.11469,-18.73435 l 19.49873,-18.73435 3.42167,3.98435 c 6.5193,7.59138 24.04672,31.03271 31.01846,41.48435 25.40751,38.08955 39.89706,72.42483 44.94318,106.5 1.96508,13.26966 1.46207,37.02138 -1.02713,48.5 -5.691,26.24339 -18.47706,49.94083 -38.31785,71.0176 -26.45859,28.10684 -70.36809,53.98685 -117.02911,68.97631 -7.00624,2.2507 -13.30111,4.28368 -13.98861,4.51775 -0.6875,0.23406 -1.25,0.30213 -1.25,0.15126 z"
     id="path3451"
     inkscape:connector-curvature="0" />
</svg>
